<svg xmlns="http://www.w3.org/2000/svg" width="159.616" height="38.712" viewBox="0 -1442 8818.7 2139" xmlns:xlink="http://www.w3.org/1999/xlink">
  <defs>
    <path id="a" d="M33 157q0 101 76 192t171 92q51 0 90-49 16 30 46 30 13 0 23-8t10-20q0-13-37-160T374 68q0-25 7-33t21-9q9 1 20 9 21 20 41 96 6 20 10 21 2 1 10 1h4q19 0 19-9 0-6-5-27t-20-54-32-50Q436 0 417-8q-8-2-24-2-34 0-57 15t-30 31l-6 15q-1 1-4-1l-4-4q-59-56-120-56-55 0-97 40T33 157zm318 171q0 6-5 22t-23 35-46 20q-35 0-67-31t-50-81q-29-79-41-164v-11q0-8-1-12 0-45 18-62t43-18q38 0 75 33t44 51q2 4 27 107t26 111z"/>
    <path id="b" d="M56 347q0 13 14 20h637q15-8 15-20 0-11-14-19l-318-1H72q-16 5-16 20zm0-194q0 15 16 20h636q14-10 14-20 0-13-15-20H70q-14 7-14 20z"/>
    <path id="c" d="M84 237v13l14 20h581q15-8 15-20t-15-20H98q-14 7-14 20z"/>
    <path id="d" d="M58-216q-14 0-24 8t-11 22q0 10 73 302t77 298q13 28 46 28 12-1 20-7t10-12 2-10q0-12-31-134t-33-137q-2-11-2-35v-8q0-73 67-73 9 0 18 1t17 4 15 7 13 7 12 10 11 10 10 12 8 11 9 12l7 10 36 143q36 142 40 151 13 27 43 27 13 0 21-7t11-12 2-10L449 84q-1-5-1-16 0-25 7-33t21-9q9 1 20 9 21 20 41 96 6 20 10 21 2 1 10 1h4q19 0 19-9 0-6-5-27t-20-54-32-50Q510 0 491-8q-8-2-24-2-21 0-38 6t-27 15-17 18-9 15-2 7l-6-6q-6-6-18-15t-26-18-36-16-42-7q-47 0-93 23l-24-97q-21-82-25-95t-12-22q-16-14-34-14z"/>
    <path id="e" d="M234 637h-8q-25 0-30 1t-5 11q0 27 11 33 2 1 97 1h88q11 0 14-6 211-496 215-509l54 213q53 211 53 225 0 27-64 31-24 0-24 11 0 2 2 12 4 16 6 19t10 4q3 0 31-1t83-2q50 0 76 1t30 1q15 0 15-10 0-22-8-30-2-5-22-5-71-4-89-40L620 7q-2-7-21-7-14 0-17 2-3 3-129 303L326 604l-65-260Q196 88 196 79q5-33 72-33h10q6-5 6-8t-2-19q-4-13-10-19h-13q-31 2-108 2H63Q49 2 46 1q-15 0-15 9 0 4 3 16t5 14q2 6 23 6 68 3 88 39 4 6 71 277l68 272q-2 1-55 3z"/>
    <path id="f" d="M173 380q0 25-19 25-24 0-50-29t-43-89q-1-1-2-3t-1-3-2-2-3-1-4 0-8 0H27q-6 6-6 9 0 7 8 29t24 52 44 51 63 22q42 0 65-24t24-56q0-17-3-26 0-6-15-44t-31-89-18-89q0-27 5-44 13-43 63-43 37 0 69 34t50 79 29 83 11 55q0 23-8 40t-18 26-18 18-8 22q0 22 19 41t41 19q19 0 34-18t16-58q0-27-12-83t-37-125-71-119-106-51q-64 0-102 33-37 32-37 95 0 31 8 64t41 117q22 64 22 82z"/>
    <path id="g" d="M112 560l137 134 8-8q130-124 130-126l-26-29q-2 1-58 50l-53 46-55-47q-13-11-26-23t-21-19l-8-6q-2-2-15 14l-13 14z"/>
    <path id="h" d="M21 287q1 6 3 16t12 38 20 47 32 37 44 17 43-7 30-18 16-22 8-19l2-7q0-2 1-2l11 11q60 64 141 64 17 0 31-2t26-7 19-10 15-12 10-13 8-13 4-12 3-9 2-7l8 10q63 75 149 75 54 0 87-27t34-79q0-51-38-158T704 50q1-14 5-19t15-5q28 0 52 30t39 82q3 11 6 13t16 2q20 0 20-8 0-1-4-15-8-29-22-57t-46-56-69-27q-47 0-68 27t-21 56q0 19 36 120t37 152q0 59-44 59h-5q-86 0-145-101l-7-12-33-134Q433 26 428 16q-13-27-43-27-13 0-21 7T353 8t-3 10q0 11 34 143l36 146q3 15 3 38 0 59-44 59h-5q-86 0-145-101l-7-12-33-134Q156 26 151 16q-13-27-43-27-13 0-21 6T76 7t-2 10q0 13 38 164 39 154 39 161 3 15 3 27 0 36-25 36-22 0-37-28t-23-61-12-36q-2-2-16-2H27q-6 6-6 9z"/>
    <path id="i" d="M311 43q-15-13-44-28T206 0q-63 0-101 45T66 160q0 105 77 193t171 89q47 0 87-48l3 4q2 3 5 6t9 8 13 7 16 3q14 0 23-9t10-19q0-15-57-242T363-80q-18-54-77-89t-135-36q-141 0-141 68 0 26 18 46t46 20q15 0 28-9t14-31q0-10-2-19t-7-14-8-10-7-8l-2-2h1q10-3 60-3 38 0 60 12 23 11 43 33t28 47q6 19 16 62 13 48 13 56zm73 285l-4 11q-3 11-5 15t-6 14-10 14-13 11-18 9-22 3q-44 0-85-53-30-39-50-119t-20-116q0-79 62-79 56 0 110 70l8 10 53 210z"/>
  </defs>
  <g data-mml-node="math" stroke="currentColor" fill="currentColor" stroke-width="0">
    <use xlink:href="#a" data-mml-node="mi" transform="scale(1 -1)"/>
    <use xlink:href="#b" data-mml-node="mo" transform="matrix(1 0 0 -1 806.8 0)"/>
    <g data-mml-node="TeXAtom">
      <g data-mml-node="mfrac">
        <g data-mml-node="TeXAtom">
          <use xlink:href="#c" data-mml-node="mo" transform="matrix(1 0 0 -1 2082.6 -676)"/>
          <use xlink:href="#d" data-mml-node="mi" transform="matrix(1 0 0 -1 2860.6 -676)"/>
          <use xlink:href="#e" data-mml-node="mi" transform="matrix(1 0 0 -1 3463.6 -676)"/>
          <g data-mml-node="TeXAtom">
            <g data-mml-node="mover">
              <use xlink:href="#f" data-mml-node="mi" transform="matrix(1 0 0 -1 4359.1 -676)"/>
              <use xlink:href="#g" data-mml-node="mo" transform="matrix(1 0 0 -1 4379.4 -648)"/>
            </g>
          </g>
        </g>
        <use xlink:href="#h" data-mml-node="mi" transform="matrix(1 0 0 -1 3042 686)"/>
        <path stroke="none" d="M1982.6-220h2996.8v-60H1982.6z"/>
      </g>
    </g>
    <use xlink:href="#b" data-mml-node="mo" transform="matrix(1 0 0 -1 5377.1 0)"/>
    <use xlink:href="#c" data-mml-node="mo" transform="matrix(1 0 0 -1 6432.9 0)"/>
    <use xlink:href="#d" data-mml-node="mi" transform="matrix(1 0 0 -1 7210.9 0)"/>
    <use xlink:href="#i" data-mml-node="mi" transform="matrix(1 0 0 -1 7813.9 0)"/>
    <g data-mml-node="TeXAtom">
      <g data-mml-node="mover">
        <use xlink:href="#f" data-mml-node="mi" transform="matrix(1 0 0 -1 8298.4 0)"/>
        <use xlink:href="#g" data-mml-node="mo" transform="matrix(1 0 0 -1 8318.7 28)"/>
      </g>
    </g>
  </g>
</svg>
