<svg width="92" height="36" viewBox="0 0 123 48" xmlns="http://www.w3.org/2000/svg">
  <g fill="none" fill-rule="evenodd">
    <circle fill="#647083" opacity=".2" cx="98.667" cy="24" r="24"/>
    <path d="M7.894 31.975c3.367 0 5.313-1.465 6.757-3.454l-3.193-2.275c-.918 1.116-1.859 1.86-3.455 1.86-2.143 0-3.652-1.794-3.652-4.09v-.044c0-2.23 1.51-4.067 3.652-4.067 1.465 0 2.471.722 3.346 1.793l3.192-2.47c-1.355-1.86-3.367-3.171-6.494-3.171C3.41 16.057 0 19.555 0 24.016v.044c0 4.57 3.52 7.915 7.894 7.915zm13.98-.306h4.438l1.093-2.755h5.926l1.094 2.755h4.548l-6.516-15.416h-4.09L21.873 31.67zm6.778-6.057l1.727-4.33 1.706 4.33h-3.433zm18.581 6.057h4.242v-4.635h1.88l3.084 4.635h4.876l-3.652-5.335c1.903-.81 3.15-2.362 3.15-4.723v-.044c0-1.509-.46-2.668-1.356-3.564-1.028-1.028-2.646-1.64-4.986-1.64h-7.238v15.306zm4.242-7.96v-3.695h2.8c1.399 0 2.295.613 2.295 1.837v.044c0 1.115-.853 1.815-2.274 1.815h-2.82zm21.993 7.96h4.242V20.08h4.592v-3.717H68.898v3.717h4.57v11.59zM98.667 32a8 8 0 100-16 8 8 0 000 16z" fill="#162945"/>
  </g>
</svg>
