<svg xmlns="http://www.w3.org/2000/svg" xml:space="preserve" x="0" y="0" style="enable-background:new 0 0 46 40" version="1.1" viewBox="0 0 46 40"><style>.st3{fill:url(#SVGID_00000019666355307410372800000003889290272895494073_)}.st4{fill:url(#SVGID_00000078009838544920653140000003022816676572672415_)}.st5{fill:url(#SVGID_00000155143267251231807990000005331660806572861321_)}</style><path d="M23.9 35.2c-.1-.4.1-.8-.1-1.2-.1-.3-.3-.4-.5-.6-.4-.7-.8-1.6-.9-2.4 0-.8-.3-1.4-.4-2.2v-1.1c0-.2 0-.3-.1-.5 0 0 0-.2-.1-.3l.1-.2c0-.1.8-.1 1.1-.1h1.3c.9 0 1.7 0 2.5-.1 1.9-.3 2.8-1.1 3.2-1.4 1.7-1.3 2.5-3.3 2.5-3.3.3-.6.3-1.8.9-2.3.7-.6 1.9-.6 2.8-.9.5-.2.8-.3 1.3-.2.4.1 1 .5 1.2-.1-.1-.1-.2-.2-.2-.3.7-.1 0-1.7-.3-2-.4-.5-1.1-.7-1.9-.9-.9-.2-1.7-.5-2.5-.3-1.5.3-1.3-.5-2.2-.5-1 0-2.9.1-3.2 1-.1.5-.3.5-.6.8-.2.3 0 .6-.1.9-.1.4-.3 1.6-.5 2.1-.3.7-.6 1.7-1.3 1.7-.9.1-1.6.1-2.3-.1-.4-.2-1.2-.4-1.5-.6-1.7-.7-2-1.5-2-1.5-.2-.3-.7-.8-.8-1.4-.2-.7-.5-1.3-.7-1.6-.1-.4-.5-1-.7-1.6-.3-.8-.8-1.4-1.1-1.8-.5-.5-1-1.2-2.1-1-.2 0-.9.1-1.4.5-.4.3-.5.9-.8 1.5-.2.3-.5 1.2-.8 1.9-.2.5-.3.9-.5 1.1-.2.1-.4.3-.7.2-.2-.1-.4-.2-.5-.3-.2-.2-.8-1.1-1.2-1.9-.3-.6-.9-1.5-1.3-2-.5-.7-.8-.9-1.6-.9-1.7 0-1.8.9-2.5 2.3-.3.6-.4 1.6-1.1 2.3-.4.4-1.6 2.2-2.4 2.5v12.5-.1c.1-.2.1-.3.2-.5.3-.7 1.1-1.3 1.5-2 .2-.4.5-.8.6-1.2.1-.3.2-.9.4-1.2.2-.4.6-.5.9-.6.6-.1 1.1.8 1.8 1.2.3.1 1.7.6 2.2.8.7.2 1.5.3 2.2.5.5.2.9.2 1.3.2s1.7.1 1.8.2c-.7.3-1.1 1.3-1.3 2-.3.7-.4 1.5-.8 2.2-.4.8-1.1 1.1-1 2 0 .4.1.7 0 1.1-.1.4-.2.7-.4 1.1-.2.5-.3 2.2-.6 2.7l1.5-.2c.2-.4.3-2 .4-2.2.3-.8.6-1.5 1.2-2.1.6-.6.5-1.4.8-2.1.3-.8.8-1.4 1.3-2.1.8-1.3 1.3-3 3-3.3.2 0 1.2.7 1.7 1.2s1.1 1.1 1.5 1.8c.7 1.4 1.2 3.3 1.5 4.4.1.6.2.7.6 1.2.2.2.6.9.7 1.2.1.3.3.9.5 1.3.1.2.3.8.5 1.3h1.4c-.7-1.4-1.2-3-1.4-4.5z" style="fill:#fff"/><path d="M23 27.1s0-.1 0 0z" style="fill:#484444"/><linearGradient id="SVGID_1_" x1="23.042" x2="23.042" y1="14.934" y2="14.883" gradientTransform="matrix(1 0 0 -1 0 42)" gradientUnits="userSpaceOnUse"><stop offset="0" style="stop-color:#f29100"/><stop offset="1" style="stop-color:#ec670f"/></linearGradient><path d="M23 27.1s0-.1 0 0z" style="fill:url(#SVGID_1_)"/><linearGradient id="SVGID_00000159432202981495199820000013440889407401948575_" x1="16.903" x2="16.903" y1="14.617" y2="2.071" gradientTransform="matrix(1 0 0 -1 0 42)" gradientUnits="userSpaceOnUse"><stop offset="0" style="stop-color:#f29100"/><stop offset="1" style="stop-color:#ec670f"/></linearGradient><path d="M23.2 38.4c-.2-.3-.4-1-.5-1.3-.1-.3-.5-1-.7-1.2-.4-.5-.5-.5-.6-1.2-.2-1.1-.8-3-1.5-4.4-.3-.7-.9-1.3-1.5-1.8-.5-.4-1.5-1.2-1.7-1.2-1.7.3-2.2 2-3 3.3-.4.7-.9 1.3-1.3 2.1-.3.7-.3 1.5-.8 2.1-.6.6-.9 1.3-1.2 2.1-.1.2-.2 1.8-.4 2.2l2.5-.2c2.3.2 1.7 1.1 5.3.9l5.8-.2c-.1-.4-.3-1-.4-1.2z" style="fill:url(#SVGID_00000159432202981495199820000013440889407401948575_)"/><linearGradient id="SVGID_00000089567650013081133770000010991480540068032155_" x1="23.002" x2="23.002" y1="42" y2="2.046" gradientTransform="matrix(1 0 0 -1 0 42)" gradientUnits="userSpaceOnUse"><stop offset="0" style="stop-color:#f29100"/><stop offset="1" style="stop-color:#ec670f"/></linearGradient><path d="M40.2 0H5.9C2.7 0 .1 2.6.1 5.8v12.6c.8-.3 2-2.1 2.4-2.5.7-.7.8-1.7 1.1-2.3.7-1.4.9-2.3 2.5-2.3.8 0 1.1.2 1.6.9.4.5 1 1.4 1.3 2 .3.7.9 1.7 1.2 1.9.2.1.4.3.5.3.3.1.5-.1.7-.2.2-.2.3-.6.5-1.1.3-.7.6-1.6.8-1.9.3-.5.4-1.1.8-1.5.5-.4 1.2-.5 1.4-.5 1.1-.2 1.6.5 2.1 1 .3.3.8.9 1.1 1.8.3.6.6 1.2.7 1.6.1.4.5.9.7 1.6.2.6.7 1.1.8 1.4 0 0 .3.8 2 1.5.4.2 1.1.4 1.5.6.7.3 1.4.2 2.3.1.6 0 1-.9 1.3-1.7.2-.4.3-1.7.5-2.1.1-.3-.1-.6.1-.9.3-.4.4-.4.6-.8.3-1 2.1-1 3.2-1 .9 0 .7.8 2.2.5.8-.2 1.6.1 2.5.3.7.2 1.4.4 1.9.9.3.3.9 1.9.3 2 .1.1.1.2.2.3-.2.6-.8.2-1.2.1-.5-.1-.8 0-1.3.2-.8.4-2 .3-2.8.9-.6.5-.6 1.7-.9 2.3 0 0-.8 2-2.5 3.3-.4.3-1.3 1.1-3.2 1.4-.8.1-1.6.1-2.5.1h-1.3c-.3 0-1.1 0-1.1.1l-.1.2c0 .1 0 .3.1.3 0 .2 0 .3.1.5v1.1c0 .8.3 1.4.4 2.2 0 .8.5 1.7.9 2.4.2.3.4.3.5.6.1.4 0 .8.1 1.2.2 1.5.7 3.1 1.4 4.5.9-.1 1.7-.4 2.8-.6 2-.3 4.8-.1 6.7-.3 4.6-.4 7.1 1.9 11.2.9V5.8c-.3-3.2-2.9-5.8-6-5.8zM23 27.1c0-.1 0 0 0 0z" style="fill:url(#SVGID_00000089567650013081133770000010991480540068032155_)"/><linearGradient id="SVGID_00000104673081434150911260000016506419810385994163_" x1="6.407" x2="6.407" y1="16.486" y2="2.322" gradientTransform="matrix(1 0 0 -1 0 42)" gradientUnits="userSpaceOnUse"><stop offset="0" style="stop-color:#f29100"/><stop offset="1" style="stop-color:#ec670f"/></linearGradient><path d="M10.6 32.4c.3-.7.5-1.5.8-2.2.3-.7.6-1.7 1.3-2-.1-.1-1.4-.1-1.8-.2-.4 0-.8-.1-1.1-.2-.7-.1-1.5-.3-2.2-.5-.4-.1-1.9-.6-2.2-.8-.7-.3-1.2-1.2-1.8-1.2-.4.1-.7.2-.9.6-.2.3-.2.8-.4 1.2-.1.4-.4.8-.6 1.2-.4.7-1.2 1.3-1.5 2-.1.1-.1.3-.2.5v7.8c.4.1.8.1 1.2.3 3.2.9 4 .9 7.2.6h.3c.2-.5.4-2.2.6-2.7.1-.4.3-.7.4-1.1.1-.4 0-.8 0-1.1-.2-1.1.6-1.4.9-2.2z" style="fill:url(#SVGID_00000104673081434150911260000016506419810385994163_)"/></svg>