<svg height="10" width="500" xmlns="http://www.w3.org/2000/svg">
  <defs>
    <linearGradient id="a">
      <stop offset="0%" stop-color="#fffa17"/>
      <stop offset="100%" stop-color="#ff9c0d"/>
    </linearGradient>
  </defs>
  <path d="M0 0s0 0 0 0m0 0s0 0 0 0m.534 6.706c1.72-2.644 1.874-4.234 4.091-6.878M-.42 6.044C.836 5.022 1.984 3.1 4.634.562M-.533 11.114C3.427 8.674 6.66 4.69 9.765-.863M1.257 10.86c3.216-2.919 7.15-7.457 9.24-11.332M5.374 11.355C7.57 7.862 10.648 7.935 15.485.673M7.112 10.902C9.026 8 12.567 4.592 15.09.606m-3.014 11.376C13.481 7.563 16.447 5.795 22.022 0M10.737 11.563C15.528 6.607 19.442 2.984 21.3-.366m-3.87 9.96C18.97 6.609 21.452 6.3 27.392.758m-10.015 9.705c2.742-3.355 6.417-7.513 9.025-9.85M22.91 11.1c2.072-1.33 2.308-5.112 10.462-11.863M22.586 11.259c2.138-2.865 3.726-5.52 9.097-11.787m-4.74 10.866c3.477-4.24 8.425-8.398 9.262-10.471m-8.343 11.097c1.666-2.763 3.493-3.803 8.9-10.704m-3.186 9.502c3.053-3.2 4.654-5.25 8.368-10.033m-9.591 11.949c3.383-4.358 6.655-7.609 10.161-11.97m-4.981 11.35c2.831-3.228 5.196-5.865 9.912-12.096m-9.449 12.096C42.21 6.63 44.643 3.532 46.917.21m-2.832 9.597c3.3-1.34 5.927-5.923 8.105-8.86m-8.676 9.598C46.239 7.057 49.63 4.558 52.51-.348m-4.603 11.582C52.682 5.681 56.829 2.275 57.01.398m-8.754 10.57C51.783 7.1 55.107 4.084 57.854.676m-3.048 9.662c3.865-2.56 6.495-8.644 9.125-9.168m-9.892 9.675C57.558 7.45 61.304 4.098 64.49.316M58.756 9.53C63.417 7.003 66.82 4.507 69.682-.37m-10.69 10.764c3.875-4.056 7.404-7.817 9.22-9.831m-2.611 10.161c.032-.836 2.547-4.205 9.563-10.158M64.763 11.754c3.032-4.142 6.794-8.102 9.82-12.421m-3.989 11.063c2.557-3.703 4.824-4.6 7.53-11.188m-8.607 11.454C73.07 8.774 75.154 5.688 79.945-.327M76.39 10.016C78.446 8.733 81.75 2.845 86.406-.76M75.465 11.386c2.503-2.72 4.255-5.49 9.93-11.764m-4.993 11.096c4.516-1.784 6.912-6.662 8.483-11.839m-7.523 12.033C83.959 7.94 85.516 5.145 89.69-.494m-5.04 10.542c2.876-.713 6.107-4.74 9.737-9.372m-9.206 9.916c2.992-3.26 6.976-6.646 10.887-10.798M90.91 11.145c2.486-2.135 3.98-5.49 9.519-11.667m-9.533 11.53c3.946-4.018 7.435-8.7 9.215-10.796m-3.657 11.876c2.28-3.95 4.262-6.835 9.02-11.566m-8.924 9.983c2.58-2.744 4.884-5.456 9.865-10.608m-5 10.868c2.877-4.687 6.945-9.332 9.783-11.303m-9.562 11.754c3.878-4.47 7.62-7.926 9.121-11.651m-3.972 10.655c5.072-3.303 6.382-6.905 9.014-10.785m-8.025 11.89c1.327-3.131 2.771-5.133 9.175-11.396m-4.048 10.267c2.165-3.71 7.488-5.735 10.104-11.239m-10.722 12.377c3.479-4.671 7.431-9.007 10.354-11.418M117.433 11.5c2.89-4.27 4.52-6.578 8.345-11.282m-8.536 10.467c3.076-2.068 5.265-5.19 10.048-10.107m-4.613 10.119c2.212-3.554 4.844-6.24 8.593-11.656m-8.701 12.075c3.323-4.668 8.122-9.4 10.675-11.207m-5.335 10.106c3.333-2.281 8.14-8.08 8.263-8.692m-7.894 9.798c3.723-4.503 6.98-9.016 9.352-11.514m-4.413 13.103c1.418-5.15 4.518-7.31 9.543-12.348m-9.664 10.122c4.204-3.732 7.33-7.441 9.36-10.332m-3.596 11.473c1.965-4.961 4.616-6.651 9.53-10.525m-9.669 9.602c3.286-3.567 6.214-6.456 9.452-10.557m-3.923 9.828c3.497-2.455 6.853-7.66 9.41-9.36m-9.746 11.07c4.157-4.274 7.026-9.143 9.244-11.792m-3.428 10.936c1.987-3.64 4.565-4.315 9.78-9.781m-9.387 10.416c3.275-5.023 6.725-8.736 9.254-11.711m-3.382 12.26c1.48-4.151 3.523-5.683 7.191-10.73M154 11.017c3.18-2.761 6.18-7.166 10.063-11.654m-5.158 11.758c3.947-4.056 8.443-8.408 10.044-11.981m-8.12 11.382c2.449-3.323 5.795-7.758 9.107-9.744m-5.162 10.49c4.743-4.322 9.394-8.812 11.485-12.746M164.78 11.564c2.563-3.114 5.238-6.928 9.764-11.856m-3.916 9.762c3.224-2.858 6.875-6.71 10.085-9.084M170.55 11.012c3.873-3.657 7.377-7.405 9.377-10.782m-2.978 11.937c2.894-4.218 6.181-8.496 9.773-13.494m-10.778 12.84c2.09-2.772 5.06-5.408 10.33-11.75m-4.734 10.779c3.444-2.558 7.691-7.6 9.02-9.02m-8.733 9.346c1.905-3.39 4.91-5.604 8.545-10.433m-5.247 10.731c3.076-3.673 5.054-5.43 12.614-10.091M186.173 11.29c2.203-2.142 4.465-5.223 9.696-11.09m-3.943 11.44c2.14-5.303 6.209-6.93 10.39-10.226m-10.097 9.624c2.657-3.515 4.944-6.24 9.7-11.467m-3.529 12.285c1.11-3.842 5.502-9.433 7.543-12.687m-9.124 12.282c3.202-3.782 7.735-8.247 9.699-11.415m-2.579 11.045c.007-3.41 2.758-5.44 6.777-10.543m-8.517 9.64c2.751-2.92 5.234-5.562 9.324-9.944m-4.066 9.67c3.915-1.842 4.9-5.718 9.52-11.508m-9.902 13.096c4.658-4.712 8.485-8.845 11.2-11.787M212.88 10.4c3.457-2.558 6.347-6.214 10.56-9.821m-9.653 9.9c2.353-3.59 4.479-6.594 8.206-10.248m-2.329 10.607c-.264-2.604 1.856-5.774 8.417-12.387m-9.034 12.88c1.423-3.817 5.28-7.157 9.528-11.504m-5.903 10.715c3.746-1.507 6.724-4.41 11.394-9.522m-11.421 10.875c3.974-4.015 6.24-7.212 10.69-11.18m-5.116 10.734c3.033-4.363 8.558-8.842 9.693-11.576m-8.444 10.46c1.054-2.096 3.882-3.54 8.876-10.08m-5.31 11.946c5.525-5.677 7.397-7.148 11.632-12.423m-10.613 11.17c2.844-3.06 5.547-5.621 9.895-10.99m-3.86 9.658c1.18-2.573 2.812-3.542 7.566-9.97m-8.107 11.25c2.682-3.821 5.613-6.51 9.42-10.105m-5.035 11.623c2.635-4.604 5.335-7.58 9.798-13.36m-9.033 12.866c2.533-3.982 5.595-6.372 10.16-12.469m-3.38 11.693c.73-3.385 3.767-5.252 7.945-10.112m-8.936 9.386c2.674-2.653 5.593-6.06 8.517-9.846m-4.278 9.763c2.966-1.086 6.448-5.832 9.698-11.116m-9.67 11.422c5.02-4.323 8.675-7.661 10.344-10.069m-4.7 8.874c1.61-1.065 6.504-5.677 8.9-10.048m-7.938 11.014c2.996-2.602 5.172-6.678 8.937-9.88m-3.608 10.282c3.711-5.203 7.375-7.22 8.137-11.245m-9.362 12.124c3.53-3.737 4.756-5.652 10.122-11.214m-3.961 9.85c4.844-2.76 7.6-7.81 8.616-10.617m-8.99 11.518c2.444-3.299 5.278-5.191 9.331-10.783m-2.598 11.927c2.195-5.896 4.685-10.69 9.473-13.713M275.85 11.166c4.496-4.668 6.74-7.362 10.527-11.805m-4.12 11.824c2.502-2.232 6.11-7.257 9.748-10.36m-9.918 10.59c2.126-2.96 5.268-6.063 8.833-11.14m-3.82 11.999c4.136-5.635 5.401-6.64 8.76-11.58m-8.932 9.806c3.338-3.323 7.712-6.89 10.637-11.277m-3.793 12.661c1.91-3.603 4.534-8.113 6.821-12.416m-8.483 11.035C296.02 7 299.385 3.63 301.78.289m-4.806 9.501c5.024-3.774 8.844-7.423 10.249-10.244m-9.412 10.998c2.379-2.704 5.294-4.991 9.322-10.214m-4.556 11.403c3.11-4.898 7.235-8.52 8.978-11.106m-7.6 9.4c2.113-1.978 5.816-6.259 9.335-9.837m-5.534 10.337c3.837-4.001 4.67-6.357 9.302-12.036m-9.054 11.867c2.69-2.92 5.241-4.954 10.239-10.834m-3.389 9.818c.982-1.06 4.296-4.915 7.959-9.028m-8.363 10.097c1.792-2.415 5.062-6.118 9.147-9.948m-3.604 11.862c3.065-5.876 4.474-7.939 8.007-13.98m-9.041 13.122c3.512-4.034 5.596-7.12 9.29-12.424m-2.764 11.44c-.018-1.174 3.546-4.168 9.77-10.87m-10.544 11.623c1.881-2.835 4.238-4.807 8.694-11.509m-4.044 10.354c3.563-3.539 7.375-9.45 10.3-9.818m-10.594 10.19c2.28-1.792 4.978-4.286 10.139-11.134m-2.727 10.702c3.01-4.426 5.825-6.119 8.594-10.703m-9.787 10.571c3.89-3.432 7.492-7.206 9.713-9.203m-5.104 8.866c3.356-2.462 5.67-6.957 8.703-9.969m-8.524 11.099c3.108-4.388 7.756-8.41 9.282-10.395m-4.385 9.845c4.542-3.447 5.609-4.982 9.437-11.203m-9.845 11.884C347.76 8.452 348.888 7.295 354.7.567m-3.254 9.295c3.671-4.026 6.852-5.532 8.693-9.02m-9.123 10.538c1.768-2.564 3.53-4.232 9.595-10.399m-3.316 9.501c.042-4.035 4.264-4.677 9.179-10.903m-10.147 11.336c3.126-4.035 6.048-7.435 10.075-10.28m-4.545 11.243c2.262-3.302 5.704-6.703 8.427-10.352m-9.032 9.685c2.998-4.2 6.382-8.383 8.878-11.437m-3.857 12.56c3.483-3.158 5.376-5.863 10.147-11.35m-9.766 9.635c2.106-2.361 5.747-5.326 9.876-11.269m-3.076 10.68c1.34-2.082 6.485-8.414 7.59-11.13m-8.818 12.072c2.52-2.758 4.83-4.954 9.49-10.688m-4.323 11.006c3.066-5.127 5.703-7.927 10.148-12.452m-10.137 11.747c3.108-3.969 7.463-7.994 9.967-10.687m-4.912 11.867c4.705-4.88 6.591-7.675 8.539-11.156m-8.53 9.606c2.804-2.69 7.017-6.473 9.027-10.626m-4.997 12.229c2.547-2.402 6.63-5.211 12.2-11.897m-11.242 11.13c3.43-3.09 5.976-5.912 10.4-10.798m-5.603 11.6c6.054-5 9.334-9.48 9.457-10.447m-8.748 9.392c2.606-3.014 5.974-6.315 9.876-11.143m-4.097 12.753c3.506-3.123 3.565-6.413 10.938-12.469M397.82 10.69c2.64-2.179 5.007-4.62 10.048-10.967m-4.022 10.031c4-4.215 7.145-8.7 10.06-9.528m-9.933 10.27c2.511-2.355 4.326-4.687 8.687-10.853m-3.97 10.564c3.502-2.883 6.967-5.114 9.097-9.85m-9.108 9.997c3.468-1.771 4.547-4.446 10.884-10.887m-5.21 12.1c3.344-4.735 6.31-9.529 10.344-11.643m-9.79 11.195c3.255-3.747 4.935-7.512 9.53-11.613m-6 11.344c4.214-2.566 7.844-7.11 12.5-9.705m-11.873 10.04c3.485-1.768 4.9-4.373 10.224-11.696m-2.704 9.906c1.177-2.269 4.217-4.952 8.77-9.812M425.038 10.58c3.829-3.866 7.524-8.408 9.451-10.927m-5.008 11.612c4.732-3.94 5.757-5.383 10.618-13.022m-9.427 12.146c1.515-2.381 5.15-5.708 9.47-10.13m-4.763 9.775c3.581-2.464 6.377-7.81 10.243-10.577m-9.371 11.183c1.479-2.281 3.958-5.168 8.304-10.363m-3.963 11.117c2.997-4.15 4.74-6.336 11.374-12.777m-10.384 11.902c2.386-1.815 3.93-5.864 9.91-10.932m-5.874 10.352c4.033-3.87 7.42-5.258 10.734-10.843m-9.844 12.102c2.832-3.33 5.802-7.506 9.88-11.396m-6.19 9.81c3.993-3.373 7.314-6.59 11.521-10.54m-9.51 12.005c1.383-3.689 3.8-6.32 9.936-11.6m-7.058 11.2c3.562-1.755 7.373-4.757 11.01-9.686m-9.913 10.057c4.406-4.65 8.039-8.13 10.596-11.145m-5.799 12.14c4.75-3.752 5.368-7.588 9.808-10.957m-8.185 9.887c2.695-2.35 4.353-5.79 8.667-10.141m-4.062 10.446c1.927-4.37 6.833-8.541 9.89-10.998m-10.563 10.388c4.332-2.833 7.14-5.91 10.99-11.24m-5.77 10.596c5.158-2.637 7.627-7.016 9.38-9.089m-8.968 10.043c4.074-3.083 7.361-7.7 9.353-10.186m-4.983 9.41c3.689-2.516 8.618-7.38 12.625-9.99m-11.697 11.084c3.135-3.552 6.846-7.04 10.592-11.024m-4.234 9.589c2.555-.906 6.34-4.868 9.74-8.42m-9.685 9.029c.971-2.139 3.754-4.253 9.314-10.778m-4.258 12.123c4.054-5.806 7.026-7.803 9.41-12.02m-10.342 11.15c2.54-3.503 5.093-5.449 9.734-10.637m-3.921 9.981c2.037-3.054 4.83-4.885 9.173-9.452m-8.964 10.28c2.87-2.659 4.141-5.604 7.357-9.255" stroke="url(#a)" fill="none"/>
</svg>
