<svg height="10" stroke-opacity=".5" width="500" xmlns="http://www.w3.org/2000/svg">
  <defs>
    <linearGradient id="a">
      <stop offset="0%" stop-color="#7b16ff"/>
      <stop offset="100%" stop-color="#09cbcb"/>
    </linearGradient>
  </defs>
  <path d="M0 0s0 0 0 0m0 0s0 0 0 0m-.296 6.647c2.04-1.51 2.683-3.79 5.753-6.026M-.47 6.267c1.597-1.178 2.38-2.13 5.576-6.21M1.156 9.79C2.511 6.77 7.672 3.318 11.616-.64M1.043 10.82C3.794 7.454 7.015 4.973 10.155-.694M6.662 9.64c2.52-1.158 6.817-7.768 9.584-9.654M5.943 11.13c4.161-4.509 8.102-8.117 10.01-11.025m-4.39 11.102c1.67-2.642 4.951-6.363 9.888-12.465M10.798 11.106c5.088-4.858 7.895-8.719 9.904-11.574m-4.618 11.405C18.204 8.797 22.72 6.952 27.4.627M16.98 11.162C20.146 7.53 21.694 5.516 26.762.196M23.364 12.47c1.569-5.179 1.838-7.216 7.462-13.776m-8.071 12.315c2.516-3.186 7.29-7.572 8.571-11.591m-4.203 12.497c2.527-4.867 5.1-7.216 9.912-11.365m-9.057 10.44c1.771-3.958 5.213-6.151 8.75-11.341m-4.744 12.838C35.488 8.982 37.19 6.742 42.626.35m-9.474 10.96c3.043-4.703 6.645-7.571 9.036-11.748m-4.107 12.52C40.254 7.662 44.359 6.04 48.359-.83M37.903 10.65c3.442-2.455 5.087-6.081 9.856-10.39m-4.604 9.849c4.733-2.645 6.05-6.816 11.27-10.63m-11.352 11.36c2.476-1.83 5.063-5.061 10.11-10.877m-4.736 9.714c4.593-2.424 8.807-8.301 9.62-10.596m-9.143 10.992c3.515-3.156 6.267-6.269 8.768-9.894M53.61 10.01c3.79-3.535 8.186-8.007 9.386-11.489m-9.35 12.764C55.9 8.833 58.31 6.836 64.36-.814m-5.892 12.183c2.983-3.076 6.21-6.467 9.834-10.227m-8.784 10.216c2.338-3.26 3.703-5.402 8.891-11.253m-3.824 10.257c3.712-3.144 5.182-6.659 10.14-9.47m-9.975 9.72c2.323-2.638 6.173-5.904 9.68-10.303m-5.584 10.396C72.03 7.538 75.721 5.255 80.31-.28m-9.83 11.118c2.88-3.514 4.93-6.223 8.737-11.329m-3.089 11.64c1.917-3.147 4.686-6.052 9.765-10.595M75.84 10.478C78.53 6.502 81.28 4.135 85.428-.709m-5.33 11.941C82.793 8.622 84.055 5.89 90.472-.55M81.396 10.87c1.023-2.115 2.827-4.434 8.457-11.462m-5.234 10.738c2.754-1.701 7.818-7.323 11.756-11.157M85.338 11.235c3.859-3.82 6.432-6.428 10.665-11.908m-5.74 11.078c4.388-2.21 6.426-6.088 9.71-9.645m-8.604 10.295c3.04-3.677 6.013-8.03 9.505-11.101m-3.278 9.623c2.305-2.373 4.511-4.604 9.716-10.221M96.14 11.387c3.947-4.767 7.356-8.91 10.735-11.132m-4.124 9.388c2.091-1.355 4.38-6.218 7.742-8.62m-8.673 9.444c3.512-4.053 7.725-8.052 9.48-10.76M107.298 9.96c3.372-3.22 5.428-4.616 8.945-10.132m-8.935 11.665c3.536-4.81 7.014-8.816 8.567-10.66m-4 10.214c1.202-1.407 3.13-5.133 10.918-12.017M111.46 11.292c1.972-2.548 5.008-4.992 10.221-12.021m-4.733 12.04c4.126-2.1 7.006-7.5 9.735-9.962m-8.583 9.041c2.366-3.587 6.82-7.163 8.84-9.549m-3.22 10.862c-.133-2.827 3.59-4.291 10.143-12.65M123.123 11c2.8-4.748 6.68-8.524 9.019-10.693m-3.492 9.709c3.796-4.084 8.027-7.075 7.905-9.424m-7.689 10.858c1.325-2.787 3.627-6.096 8.016-10.518m-3.242 11.593c3.067-5.914 5.68-9.372 10.779-11.66m-11.212 9.648c3.07-1.85 4.712-5.35 10.354-10.577m-3.598 10.364c3.104-4.785 7.156-6.633 7.368-11.33m-7.921 12.19c1.375-3.502 5.054-5.77 9.11-10.245m-4.088 9.38c2.322-3.583 6.084-6.966 9.206-9.282m-10.39 10.335c3.8-5.234 7.62-8.977 9.865-10.794m-2.546 8.96c2.776-3.304 6.806-6.602 6.96-9.748m-8.222 11.144c4.706-4.783 7.356-8.33 10.098-11.353m-4.762 12.075c2.5-5.151 6.763-9.71 11.04-11.912m-11.052 12.138c3.148-5.477 7.57-9.543 9.451-12.411m-3.685 10.059c1.942.326 4.716-2.252 7.833-8.198m-7.44 10.12c2.768-4.568 5.168-6.657 8.737-10.832m-3.354 10.72c1.11-4.668 5.667-8.746 9.069-11.598m-9.516 11.209c2.549-4.134 5.726-6.52 8.884-10.739m-4.55 9.692c3.983-1.323 5.986-4.772 10.55-9.195m-9.565 10.038c1.618-2.74 4.374-5.174 8.807-11.163m-3.87 11.743c3.402-4.557 6.282-7.767 10.636-11.987M175.58 10.957c2.803-3.766 7.077-6.966 9.404-11.125m-4.218 9.615c4.257-.738 7.311-5.684 9.07-9.965m-7.953 11.4c1.406-3.23 4.385-5.11 8.57-10.668m-4.699 11.503c3.78-4.402 5.534-5.961 11.239-10.522m-11.156 10.52c3.182-2.755 4.568-6.53 10.662-12.084m-5.31 11.578c4.276-4.643 7.822-6.37 9.322-11.976m-8.108 11.59c2.71-3.205 5.912-7.235 9.503-10.494m-3.658 9.534c3.826-2.962 5.038-8.422 7.876-10.816M196.6 10.892c2.177-2.621 5.297-4.755 10.208-11.46m-3.991 9.81c3.44-1.443 7.08-5.979 8.943-8.953m-8.483 9.74c2.375-3.419 6.637-7.694 9.262-10.326m-5.71 11.581c4.48-2.19 5.571-5.759 10.981-10.77m-10.784 9.733c4.376-2.333 7.987-6.404 10.207-11.126m-3.014 11.192c2.017-3.53 6.78-8.616 7.917-9.3m-8.5 9.613c3.664-3.524 6.633-7.908 8.252-9.995m-2.592 9.35c4.136-3.675 6.634-7.386 7.459-10.197m-8.834 11.688c3.941-3.826 6.699-6.509 10.248-11.36m-3.498 11.716c1.165-3.053 4.164-7.5 8.467-13.123m-9.816 12.429c4.416-4.176 7.173-9.278 9.975-10.619m-3.765 10.06c1.615-3.936 5.976-5.533 8.328-10.075m-9.128 9.756c2.873-2.043 4.712-4.8 9.936-10.242m-5.438 11.125c4.393-3.829 7.147-6.687 11.885-9.714M233.96 10.87c4.685-3.902 8.182-9.184 9.552-10.844m-4.152 11.448c1.639-3.075 4.349-4.797 9.485-11.014m-9.73 9.904c4.63-3.842 7.91-7.518 9.037-10.56m-4.297 11.477c4.028-2.678 7.41-9.524 9.691-12.409m-8.267 11.896c3.345-3.962 6.34-8.507 8.502-10.424m-4.466 10.777c4.879-2.618 7.544-7.466 10.896-9.554m-10.33 9.976c2.057-3.53 3.99-5.834 9.935-11.01m-5.333 11.113C258.67 7.3 258.708 5.3 263.776.393m-9.017 11.118c2.031-2.42 5.241-5.21 10.78-11.156m-5.605 10.732c2.58-4.33 4.978-5.411 9.304-12.051m-7.961 12.254c2.098-3.156 5.466-6.73 8.189-10.492m-4.072 9.382c2.78-4.16 7.676-6.04 8.929-10.224m-8.414 11.701c2.907-4.48 6.255-7.428 9.268-12.262m-4.217 11.55c4.015-5.333 8.852-7.752 9.567-11.88m-9.59 11.73c4.316-3.448 6.366-6.833 10.012-10.704m-5.442 9.89c4.082-3.268 6.892-7.49 10.731-8.819m-9.948 9.748c3.432-4.18 6.868-7.739 9.904-10.875m-3.414 10.19c3.735-2.906 6.812-6.703 9.905-9.472m-11.082 9.742c2.957-2.39 4.16-4.373 9.813-10.247m-3.27 10.057c2.157-.24 4.092-2.988 9.4-10.373m-9.659 10.574c1.346-2.809 3.929-4.736 9.807-11.222m-5.855 11.955c4.969-4.973 6.996-6.914 10.156-11.931m-9.175 11.345c1.706-2.314 4.945-5.028 9.705-10.318m-4.526 11.628c2.2-3.591 2.507-4.322 10.99-12.466m-11.145 11.401c1.549-2.063 3.734-5.432 9.493-10.767m-3.22 9.735c1.174-1.707 4.487-4.886 9.416-10.145m-10.481 10.947c2.67-3.067 5.204-5.69 10.115-10.043m-5.554 11.532c5.142-5.507 7.432-9.328 10.163-11.493M308.18 11.29c2.293-3.072 4.214-5.455 9.67-11.289m-3.138 10.795c2.67-2.636 4.9-8.054 9.186-10.326m-9.255 9.637c3.007-3.675 5.972-6.88 8.639-10.647m-3.225 12.599c3.23-4.296 5.241-8.57 7.711-11.741m-9.073 10.58c4.231-3.533 8.486-7.949 9.636-10.606m-3.768 11.375c2.037-4.689 3.91-7.637 9.19-12.417m-8.444 11.742c1.378-3.014 3.973-6.15 9.102-10.397m-3.455 11.698c1.125-3.212 2.872-6.769 9.142-11.21m-9.684 9.602c2.154-2.216 4.44-5.317 8.74-11.623m-3.568 11.922c2.788-4.106 3.026-5.145 10.202-9.597M334.9 10.17c2.76-2.65 6.2-5.562 8.947-10.7m-3.489 12.623c3.951-4.463 6.99-8.98 8.857-10.326m-9.044 8.541c3.35-2.876 7.388-8.295 9.827-9.808m-3.696 12.063c2.293-4.339 5.11-9.346 9.763-13.161m-10.91 11.928c2.774-3.957 6.464-7.828 10.669-11.066m-5.327 11.504c2.994-4.253 4.128-7.098 9.305-11.05m-8.244 9.71c.83-2.358 4.003-5.019 8.79-9.61m-5.372 11.112c4.931-6.06 8.41-8.286 9.823-10.696m-9.303 10.334c4.219-4.397 7.131-6.807 10.563-10.884m-5.837 10.272c4.974-4.36 8.156-8.085 9.139-9.75m-7.357 10.198c2.214-3.197 4.023-6.015 8.97-11.024m-5.446 11.57c6.15-5.852 6.971-7.863 9.759-12.24m-9.238 10.976c3.752-3.388 7.776-6.976 10.888-10.206m-4.514 11.536c3.572-4.82 6.284-9.279 7.672-10.996m-8.097 9.813c2.329-3.09 6.061-6.239 9.237-9.958m-3.815 11.702c1.124-3.065 4.58-7.299 8.146-11.595m-8.785 10.917c3.982-3.98 7.079-8.826 10.541-11.322m-3.9 9.314c2.96-2.29 5.46-6.008 9.024-10.476m-9.043 10.864c3.028-2.712 6.502-6.844 8.734-9.755m-2.866 10.582c2.423-2.239 3.849-6.346 8.93-12.25m-10.686 12.137c3.425-3.203 7.116-6.285 10.752-10.82m-3.781 9.38c1.397-2.927 6.248-6.814 8.263-10.157m-8.659 11.55c1.249-2.293 4.347-5.99 9.132-10.617m-4.996 11.61c5.024-3.932 5.905-9.373 10.897-11.301m-10.297 10.785c1.67-2.865 5.483-6.222 10.052-11.478m-6.081 11.423c3.622-3.833 7.175-9.115 9.457-12.101m-8.614 11.02c3.12-1.944 5.01-4.98 10.051-9.89m-5.823 9.567c3.808-4.566 8.55-6.75 10.558-10.787m-8.967 11.952c2.702-4.18 7.431-8.373 9.835-10.673m-4.52 9.052c3.336-3.232 8.034-6.172 8.452-8.444m-8.525 9.721c3.756-4.667 6.857-8.016 9.249-11.065m-4.866 9.86c2.816-3.703 7.936-6.652 10.84-10.955m-10.189 12.979c3.465-5.235 6.448-9.063 9.951-11.35m-5.603 9.277c2.8-.83 7.676-5.707 11.707-10.744M425.03 10.815c2.193-2.42 4.39-4.62 9.424-10.234m-2.802 9.743c2.45-2.313 4.211-6.747 7.95-9.852m-9.85 10.396C432.84 8.01 434.93 5.596 440.898.352m-5.32 10.414c4.442-3.481 6.655-6.658 9.43-9.704m-9.241 9.044c3.581-2.31 6.883-5.702 8.817-9.415m-4.488 11.312c1.969-4.128 4.796-6.986 10.856-11.25m-10.647 10.862c4.14-5.007 7.838-9.137 10.774-11.421m-3.17 10.677c1.753-3.411 4.258-7.515 9.137-11.325M446.524 10.21c3.394-3.492 7.68-8.3 9.004-9.838m-2.705 11.207c1.895-3.452 2.443-5.738 8.577-12.389M452.1 11.554c2.92-4.832 6.348-9.473 9.686-12.254m-4.217 10.796c.931-2.321 3.86-5.183 7.47-10.885m-9.132 12.644c3.819-3.952 7.014-8.252 10.352-12.046m-3.331 10.353c1.995-1.928 4.646-6.825 9.065-9.591m-10.036 10.358c3.056-3.827 6.785-7.751 9.371-11.25m-3.555 11.447c1.835-3.34 6.115-8.793 10.039-12.35M466.943 11.05c3.56-3.423 6.321-6.359 9.899-10.841m-3.504 10.799c3.033-3.76 5.916-6.308 8.015-10.616m-9.039 10.94c2.94-2.082 4.698-5.453 10.309-11.697m-4.7 12.81c2.512-4.565 4.884-6.22 9.732-12.195m-9.593 10.806c2.838-4.24 5.915-7.583 9.91-11.446m-3.488 12.096c-.146-3.24 1.547-4.24 8.516-12.802m-9.263 11.573c1.955-2.95 5.493-6.56 9.278-10.517m-4.255 11.89c2.084-3.215 5.161-6.777 8.114-12.401m-8.96 12.471c2.655-3.23 5.115-5.548 9.96-11.311m-4.173 9.522c4.326-2.132 5.113-4.967 9.658-9.056m-9.782 9.542c3.052-2.188 6.218-6.324 9.23-10.121m-2.702 9.376c.768-2.85 6.356-5.153 9.302-8.839m-10.94 10.677c4.002-3.433 6.027-7.035 10.17-11.843M505.08 10.18c3.946-4.397 6.63-8.61 9.584-11.238m-10.512 11.718c3.007-3.748 6.785-6.37 9.216-10.911m-3.543 12.442c2.458-3.985 3.622-6.76 9.467-12.993m-10.22 12.228c2.706-2.655 4.6-4.905 10.609-11.016m-5.705 9.705c2.565-1.55 5.047-5.603 10.3-10.664m-8.831 11.774c2.527-2.7 4.752-4.467 9.22-11.218m-4.453 9.857c3.322-1.618 5.55-4.628 9.512-11.256m-9.45 11.92c2.936-2.7 5.395-4.39 9.836-11.304m-4.191 12.403c2.632-5.401 7.314-8.249 10.067-12.767m-9.806 11.343c2.344-2.155 5.057-5.75 8.39-10.034m-3.97 12.244c3.901-4.554 6.078-8.168 9.141-12.728m-8.42 11.564c1.809-2.62 3.895-4.977 10.018-11.21m-5.092 11.313c1.913-2.505 5.45-5.343 8.358-12.007m-7.703 11.503c2.56-2.345 4.549-5.762 9.193-11.092m-4.982 11.88c2.163-4.397 5.56-7.265 10.085-13.116m-9.167 11.995c1.967-2.982 6.406-6.029 9.494-10.087m-3.26 10.98c-.052-3.101 3.738-6.736 7.34-10.546m-8.678 10.257c2.644-3.995 4.87-5.971 9.654-11.366m-4.176 10.135c.76-1.344 5.063-2.468 8.254-10.961m-8.878 12.697c2.73-3.922 5.168-5.52 10.7-11.858m-5.396 10.553c4.507-1.748 6.51-5.302 10.924-10.709m-10.406 11.242c3.302-4.42 6.592-7.474 9.154-10.737m-3.269 12.04c2.463-6.106 5.522-10.13 7.818-11.507m-7.833 10.215c2.533-4.043 6.395-7.208 9.43-10.989m-4.934 10.096c4.645-1.396 6.236-6.17 10.244-9.259m-9.585 9.367c2.44-1.873 4.387-4.222 9.484-10.013m-4.696 12.173c3.599-5.142 6.288-8.304 10.302-11.996M573.483 10.68c1.568-1.443 3.715-4.168 9.448-9.952m-4.42 9.222c1.033-.37 6.156-3.964 8.387-8.783m-8.243 10.661c3.3-3.852 5.084-7.818 9.983-12.47m-5.026 12.642c2.647-2.922 5.43-7.175 10.41-11.015m-10.358 10.27c4.117-3.754 7.082-7.22 9.968-10.348m-3.618 10.305c2.842-5.161 6.549-9.168 8.039-12.1m-9.557 12.77c4.303-4.903 7.307-8.197 10.404-12.122m-3.718 11.766c1.119-2.76 2.813-4.843 7.543-8.747m-8.235 7.71c3.207-1.972 5.906-5.247 7.576-8.574" stroke="url(#a)" fill="none"/>
  <path d="M0 0s0 0 0 0m0 0s0 0 0 0m-.722 6.125c2.12-1.248 2.418-1.986 5.199-5.039M-.271 6.203C1.58 4.349 3.471 2.229 5.125.274M.898 12.626C4.801 7.696 5.181 3.682 9.67.53M.112 10.761C2.892 9.018 6.329 5.844 11.3.587M6.815 10.46C11.42 7.503 14.427 2.664 14.557.008M5.785 10.736C8.172 7.734 10.212 6.016 16.181.172m-3.286 10.8c1.131-3.392 3.422-3.779 6.906-9.816m-8.647 9.665C13.744 9.026 16.02 5.2 21.86-.446m-5.308 12.48C19.586 6.8 23.387 4.71 26.853-.449m-9.551 11.784c2.195-3.132 4.57-7.116 8.557-11.465m-2.852 12.202c1.965-4.959 4.796-8.097 8.39-12.93m-9.939 12.32c3.066-3.101 5.409-6.41 10.64-10.86M29 11.366c1.004-4.488 2.668-5.616 9.17-9.88m-10.53 9.227c3.663-3.75 7.322-8.14 9.338-10.354M33.503 11.97c3.548-4.83 7.592-8.764 10.232-11.36M32.1 10.969c5-4.907 7.867-9.367 9.88-11.502m-3.623 10.63C41.138 7.758 42.15 5.032 46.661-.95m-8.862 12.216c3.4-4.078 6.54-7.166 9.362-11.258m-2.756 12.246c.785-4.631 5.12-8.21 7.57-12.171m-8.86 11.296c3.467-4.604 7.812-8.344 10.187-12.014M48.824 10.31c3.14-2.233 4.662-6.277 8.249-9.687m-7.866 10.12C51.884 8.63 54.339 4.865 57.99.125m-4.6 11.101c3.832-3.464 6.154-4.5 11.55-10.965M53.953 11.405C56.42 7.463 59.86 4.811 63.85.071m-4.9 10.201c3.823-2.653 5.957-7.129 10.044-10.91m-8.927 11.586C62.524 7.256 66.11 3.046 68.399.084m-4.086 9.942C67.349 8.212 70.99 2.806 74.92-.772M63.854 11.387C66.231 8.58 69.22 6.537 75.11.057m-5.371 12.026c2.712-3.395 5.587-4.761 10.737-13.114M69.78 11.08c2.847-3.396 5.018-6.063 9.5-10.803m-3.162 12.016c2.046-3.055 2.66-5.475 8.24-13.723m-9.792 12.99C77.912 7.131 82.11 3.41 85.57-.793m-5.716 11.27c2.35-3.642 5.61-5.978 9.408-11.591m-8.25 11.366c3.547-3.065 6.292-6.815 8.705-10.587m-2.531 10.958C89.612 8.059 89.44 6.292 96.27-.391m-10.81 11.538c3.033-2.858 4.532-5.34 10.192-11.08m-3.866 11.862C94.028 7.81 96.87 4.674 99.97.789m-8.562 9.158c3.677-4.124 7.602-7.702 8.838-10.27M95.12 11.286c4.93-2.745 7.169-5.24 10.543-10.787m-8.748 10.374c1.641-1.64 4.28-4.715 9.213-11.144m-2.937 11.648c2.938-4.884 5.017-6.6 9.186-12.671m-9.978 11.898c2.718-3.352 4.56-5.338 9.529-11.095m-3.892 11.012c1.68-3.232 4.54-4.683 9.382-9.284m-9.692 9.903c2.488-3.246 5.494-7.258 8.883-10.236m-3.087 11.665c3.217-4.91 4.811-10.401 8.992-13.645M112.045 11.11c1.948-2.188 3.847-4.375 9.426-10.597m-3.903 10.343c3.157-3.468 2.822-5.745 9.646-11.09m-9.566 11.515c2.78-3.238 5.715-6.137 8.827-10.786m-4.913 9.868c1.941-1.152 4.232-3.502 11.37-11.018m-9.758 11.637c1.702-3.299 5.566-5.442 9.285-10.876m-2.839 9.995c2.03-3.284 4.003-3.262 8.271-9.78m-9.82 10.332c2.212-3.249 5.558-5.494 9.917-10.395m-4.22 11.41c3.984-3.121 6.604-8.973 8.291-12.097m-8.693 12.045c3.097-3.904 5.103-6.044 10.455-11.88m-5.956 11.543c3.446-2.23 5.944-5.711 11.69-11.527M138.49 11.252c3.082-3.883 5.792-6.743 9.986-10.998m-5.388 10.868c4.607-3.356 4.136-4.942 10.602-11.243m-9.115 10.674c2.401-2.904 6.755-7.157 8.84-11.152M149.7 9.823c1.251-.885 4.35-4.719 7.854-10.012m-7.594 11.143c1.324-2.855 3.01-4.69 9.507-10.771m-4.431 9.933c2.873-1.609 6.58-7.523 8.933-8.919m-9.294 10.258c2.64-4.39 6.156-8.51 9.79-11.237m-5.258 9.466c2.241-.712 4.592-2.452 10.57-8.691m-9.752 9.433c1.812-1.393 5.105-4.953 9.475-10.475m-2.983 11.214c1.83-3.316 2.619-6.546 9.946-11.33M165.24 10.587c2.52-3.295 5.094-6.104 10.018-10.611m-4.456 10.898c2.619-1.75 5.64-6.349 9.53-10.463m-8.838 9.92c.805-1.476 3.462-3.62 8.01-9.922m-4.92 9.361c3.354-.917 6.263-4.536 10.255-8.61m-8.284 10.531c1.993-3.57 3.7-5.494 9.471-12.283m-4.132 11.623c1.68-2.643 6.604-7.046 8.275-12.093m-8.156 12.347c.754-2.8 3.142-4.44 8.792-11.786m-4.55 12.765c3.493-3.58 6.655-6.802 8.844-12.84m-7.926 11.767c1.428-2.804 4.08-5.644 8.458-11.969m-2.616 11.68c1.805-1.768 1.627-3.724 7.303-9.854m-8.262 9.866c3.089-3.693 6.994-8.045 8.838-10.539m-4.71 10.518c4.475-3.212 8.06-9.319 11.775-10.617M196.77 10.42c3.41-3.113 6.828-7.407 10.38-10.794m-5.292 9.657c2.254-2.17 7.013-4.197 10.484-10.402m-9.068 11.606c2.155-2.457 4.238-5.052 9.247-10.372m-4.356 11.162c1.959-4.923 4.26-6.152 8.753-10.354m-9.31 9.668c2.199-3.415 6.034-6.102 9.627-10.898m-5.068 9.777c3.295-1.708 5.905-3.825 11.34-9.145m-10.748 9.598c3.023-2.064 6.018-4.724 10.415-9.622m-6.224 10.754c3.948-5.025 7.464-10.188 10.05-12.615m-9.104 11.843c3.64-2.916 6.43-6.863 9.783-10.216m-5.056 12.509c2.133-5.425 6.034-7.324 9.593-14.02m-9.173 13.111c3.632-4.503 8.274-9.775 9.552-12.332m-3.621 12.208c1.704-3.79 6.437-6.019 9.31-11.865m-9.438 10.843c3.006-3.181 5.977-6.32 9.077-10.615m-4.99 9.933c5.11-1.842 8.123-8.527 11.129-9.131m-9.569 10.231c3.098-2.837 5.43-6.524 9.83-11.405m-4.117 10.218c3.532-1.2 6.28-5.124 7.71-8.648m-8.629 9.256c3.37-3.096 7.624-7.711 9.862-9.847m-3.407 10.287c3.566-4.273 6.978-7.702 9.632-11.034m-11.419 11.765C248.497 6.8 251.35 3.775 254.205.464m-3.41 9.032c1.69-1.828 4.215-4.89 9.28-8.753m-10.13 10.52c4.138-3.686 7.251-8.372 9.302-11.253m-5.287 10.044c5.483-2.43 5.617-5.902 12.224-11.216m-11.55 11.84c3.908-2.845 5.814-6.253 9.745-10.753m-3.56 10.554c2.448-4.08 5.947-6.41 9.55-9.19m-8.845 10.103c2.79-4.396 5.97-7.805 8.993-11.11m-3.152 9.609c-.053-.717 2.19-3.41 8.573-10.576m-9.854 11.334c2.944-3.555 7.493-8.627 9.048-11m-4.305 11.118c3.218-1.697 6.298-3.977 9.301-10.43m-7.98 10.49c.883-2.133 2.926-4.87 9.063-11.304m-4 12.84c1.036-5.756 3.704-7.282 9.462-13.226M275.92 10.48c4.875-3.435 7.58-7.731 9.882-10.663m-3.458 10.934c4.05-2.42 6.134-8.336 9.793-11.172m-9.64 11.087c2.958-3.989 5.794-6.618 9.384-10.7m-5.624 11.644c4.67-4.081 5.377-6.706 9.465-12.59m-9.134 12.8c4.574-4.49 6.962-9.332 10.926-12.193m-4.478 11.385c2.738-2.98 6.652-7.53 7.824-9.853m-8.108 9.89c2.738-3.742 6.198-8.444 9.693-10.4m-5.84 10.786c4.288-2.732 7.997-7.981 11.884-12.276M298.022 11.59c3.283-4.537 5.698-7.14 9.106-12.38m-3.692 11.016c3.028-2.459 7.01-7.302 10.408-9.84m-10.674 9.908c3.296-2.733 6.324-5.744 10.032-10.136m-5.384 9.763c3.078-2.679 4.391-3.698 9.087-10.985m-8.588 12.228c2.902-3.152 5.285-5.9 10.508-11.928m-5.207 10.108c1.675-2.098 5.305-2.023 8.835-8.769m-8.25 10.6c3.92-5.131 6.62-8.481 9.01-10.935m-3.653 12.025c1.01-5.06 3.945-7.171 8.38-12.608m-9.236 10.948c2.81-1.492 5.324-4.413 10.022-11.119m-3.709 10.977c3.838-2.18 4.166-6.02 8.533-11.403m-9.289 11.324c4.3-2.91 6.926-7.171 10.302-10.016m-4.94 9.764c1.896-1.467 3.67-4.184 8.713-11.723m-8.94 11.932c2.15-2.82 5.176-5.693 9.445-11.082m-3.066 9.97c1.573-2.823 3.675-3.656 9.643-10.474m-10.32 12.13c2.414-2.922 5.717-6.386 9.016-10.624m-2.704 11.633c.075-2.838 3.223-4.324 6.858-12.612m-7.683 11.173c3.197-3.313 6.032-7.233 9.165-10.702m-5.687 10.356c4.71-1.935 8.803-7.893 11.065-8.868m-9.817 10.255c2.872-4.375 6.83-8.247 9.391-10.953m-4.986 11.603C354.34 6.67 358.78 3.942 360.574-.94m-9.68 11.924c2.342-2.293 4.341-4.16 9.35-9.956m-4.062 9.686c1.971-3.385 6.415-4.98 10.754-9.582M355.583 11.94c3.782-3.979 7.009-7.972 10.22-12.556m-3.553 11.887c2.58-3.886 4.136-7.095 8.963-10.054m-9.686 9.818C365.533 7.219 368.589 3.2 370.2.967m-5.106 8.857c3.134-3.2 8.27-5.076 9.902-8.442m-8.188 10.051c3.004-3.186 5.408-6.005 8.84-11.286m-3.15 11.91c2.223-3.479 3.834-7.424 9.231-11.886m-9.888 10.322c4.408-4.014 7.491-7.774 9.124-10.45m-2.758 12.376c2.571-5.168 6.828-10.668 9.43-11.425m-9.883 9.835c2.039-3.312 5.205-6.289 9.232-10.502M381.7 9.806c4.756-1.17 7.915-5.912 9.036-9.728m-7.587 10.064c1.376-1.52 3.01-4.016 8.338-9.554m-5.014 10.173c3.018-2.691 5.88-3.779 11.442-9.748m-9.885 9.528c3.228-3.318 7.665-7.292 10.072-10.916m-4.375 11.178c2.126-4.434 3.707-4.854 8.07-11.162m-8.863 10.865c2.655-3.049 5.702-6.62 9.418-10.897m-5.16 12.739c5.364-5.058 7.581-8.29 10.28-11.98m-9.581 10.481c2.354-1.544 4.428-4.501 10.729-10.837m-5.65 11.866c2.391-3.57 6.232-8.04 9.696-11.54m-8.53 10.811c3.258-3.178 5.355-7.572 9.627-10.881m-5.465 11.944c3.184-2.419 4.78-7.45 11.874-10.97m-10.84 10.413c1.49-3.101 4.244-4.356 9.08-12.115m-5.012 11.656c4.392-5.421 7.135-7.451 10.832-9.685m-10.206 8.78c3.83-3.932 6.871-7.01 9.984-10.203m-4.055 11.039c4.27-3.024 7.052-7.572 9.296-11.946m-9.263 11.337c1.343-2.1 3.407-4.305 9.992-10.443m-4.67 11.09c3.383-3.488 2.991-5.54 9.05-10.44m-9.182 9.489c2.847-3.61 6.539-7.627 8.805-9.804m-3.443 10.843c2.463-3.382 5.996-5.808 10.406-11.2m-11.35 11.387c2.503-3.525 4.46-6.213 10.555-11.144m-5.353 9.657c3.827-1.786 6.866-7.684 11.373-10.65m-10.85 11.971c2.98-2.73 5.858-5.856 9.321-10.521m-3.147 11.003c3.015-5.207 6.587-9.06 8.99-13.565m-9.662 13.325c1.969-3.265 4.278-6.534 10.346-12.262m-3.562 11.872c2.273-5.246 6.917-7.684 8.002-11.514m-9.196 10.816c2.248-2.528 5.156-6.19 9.907-10.2m-4.06 11.306c1.392-3.59 4.797-4.168 9.731-11.364m-10.523 10.848c2.8-3.57 6.978-6.7 9.87-10.907m-5.88 12.265c4.019-4.196 7.365-8.658 10.798-10.964m-9.553 10.478c3.206-5.106 7.401-8.226 10.355-11.773m-6.123 12.001c3.574-4.528 4.749-6.82 11.215-11.682m-10.273 10.578c2.431-2.804 5.03-6.517 9.245-10.675m-3.01 10.685c4.13-3.067 6.098-7.205 7.691-12.165m-9.01 12.277c3.87-3.283 7.146-8.45 10.54-10.453m-3.697 9.864c1.572-2.542 5.675-5.456 7.061-10.503m-8.544 10.705c3.541-3.165 5.75-5.605 9.235-10.186m-2.846 11.519c3.942-3.8 5.115-7.196 7.763-12.787m-8.982 12.307c4.882-4.157 8.103-9.581 9.853-11.028m-4.836 10.811c4.689-3.961 8.259-7.013 10.752-11.116m-10.11 10.017c2.854-1.248 5.261-4.148 9.405-9.578m-2.864 11.724c1.384-5.624 5.784-9.11 8.677-13.39m-9.227 11.846c2.441-2.683 4.494-5.954 8.931-11.283M492.838 9.87c2.734-2.638 5.276-3.22 10.861-8.46m-9.929 10.047c3.195-4.012 5.459-6.907 8.89-11.203m-4.662 12.177c6.311-6.002 8.904-10.25 9.977-11.883m-9.367 11.197c4.108-5.606 7.824-8.785 11.07-12.546m-5.544 12.528c5.218-4.45 7.428-9.526 10.245-11.698M504.22 11.07c2.144-2.457 4.483-5.565 9.329-11.048m-5.18 12.307c3.019-5.5 7.933-9.056 12.638-13.868m-11.255 12.31c3.822-4.305 7.169-8.014 9.496-10.428m-5.153 10.78c3.539-1.47 6.607-3.55 9.366-10.218m-8.459 10.266c3.585-4.697 7.948-7.846 9.01-10.512m-4.504 8.96c4.677-3.702 7.349-6.245 10.288-8.723m-8.785 10.216c2.265-3.685 6.348-7.015 9.925-10.635m-5.81 9.525c5.088-4.747 9.082-7.24 9.176-11.154m-8.5 12.537c2.825-4.405 7.067-7.514 10.075-10.831m-4.6 11.753c4.158-4.117 5.582-9.547 8.422-11.47m-8.126 9.99c1.107-2.403 3.43-4.211 9.843-10.52m-4.129 11.438c1.45-4.447 4.432-6.27 8.29-12.845m-9.401 12.047c4.202-4.054 7.528-9.193 10.299-10.911m-5.26 12.352c4.636-4.567 6.235-9.218 9.36-11.235m-8.706 10.06c2.695-4.258 6.22-8.938 10-10.763m-3.219 10.445c1.838-3.025 2.414-6.292 6.585-10.179m-8.224 10.342c1.544-3.096 4.227-5.36 9.71-10.843m-4.94 10.635c4.19-2.33 6.709-8.48 10.509-10.974m-10.494 11c4.146-3.36 6.947-6.947 10.703-11.393m-3.93 9.806c1.346-1.422 5.283-4.216 7.887-10.123m-8.674 12.135c1.796-3.658 4.981-5.579 9.771-11.153m-5.855 11.238c3.973-3.434 5.59-7.239 12.513-10.764m-11.138 9.77c2.25-1.905 4.412-4.623 10.045-11.418m-4.74 10.488c2.336-2.432 2.623-4.388 9.961-9.634m-9.664 10.675c3.495-3.478 6.248-6.82 8.898-11.061m-3.418 11.572c1.663-3.716 5.667-8.956 7.828-9.695m-8.185 9.827c1.894-3.233 4.931-6.21 8.64-10.81m-3.951 10.848c4.227-4.152 6.016-6.668 10.813-11.573M578.42 11.404c2.19-3.339 4.98-5.865 9.413-11.94m-4.387 12.51c3.513-5.22 4.659-8.625 8.85-11.673m-8.735 10.258c4.364-3.815 6.926-7.63 10.113-9.606m-4.101 10.982c1.32-3.788 3.948-6.801 10.158-12.977M589.14 11.004c4.237-4.276 7.668-7.756 10.03-10.618m-3.446 10.423c1.143-3.041 2.445-5.068 7.284-10.082m-8.203 10.604c2.224-3.408 3.842-4.944 7.709-9.487" stroke="url(#a)" fill="none"/>
  <path d="M0 0s0 0 0 0m0 0s0 0 0 0m-.184 5.656C1.528 4.736 4.332 1.477 4.19.793m-4.433 5.21C.909 5.192 2.058 3.904 4.999.273M1.392 11.644C4.539 8.473 7.331 5.457 9.895-.297M.25 11.695C3.757 8.066 7.625 3.983 10.69.445M6.927 12.04c2.86-3.543 4.44-8.318 7.845-12.797M5.897 11.214c3.092-2.248 4.21-5.212 9.264-11.216m-4.441 11.45C16.493 7.645 19.757 1.071 22.042-.373m-10.686 12.37c3.753-4.408 6.98-8.356 10.242-12.322m-4.665 11.167c1.84-2.322 4.09-5.52 9.617-9.775m-9.367 9.581C19.18 8.355 20.982 6.13 25.613.066m-2.469 11.9c3.485-3.584 4.86-7.928 10.044-12.969m-11.2 11.937c2.917-2.425 5.723-6.558 9.696-10.69m-3.266 10.475c.088-2.881 3.233-5.965 9.105-10.473m-9.405 10.918c3.03-3.658 5.867-6.685 8.467-10.772m-4.419 11.231c1.576-3.95 5.608-6.794 9.41-11.933M32.59 10.774c3.049-3.181 5.622-6.34 9.424-11.384m-2.58 10.828c1.715-3.513 2.853-5.657 9.028-9.361M37.68 11.22C40.301 8.265 43.996 4.276 47.79.083m-3.199 11.81C46.336 6.63 50.431 4.015 52.937-1.1m-9.369 12.03c1.696-2.091 5.564-5.233 9.587-10.755m-3.66 10.028c2.7-2.781 5.237-6.083 9.215-9.519m-9.388 10.55C51.118 7.78 53.68 6.076 57.532.027m-4.336 10.009c4.427-1.009 4.401-2.907 10.669-8.782m-9.751 9.924c3.324-4.103 6.462-6.467 9.95-10.792m-4.183 9.15c1.867-1.72 3.567-3.176 8.473-8.094m-8.456 9.664c3.006-4.383 5.993-7.045 8.56-11.283m-4.146 12.15c1.456-3.404 5.221-5.73 10.637-13.599m-10.315 12.34c3.536-3.18 5.32-5.866 9.51-10.22m-3.96 8.925c4.872-3.375 7.02-6.623 10.033-8.724M70.23 10.848C73.213 7.604 76.887 3.258 78.71.09m-2.409 11.018C78.507 9.55 79.531 6.2 84.127-1.505M74.966 11.34C78.523 6.853 81.68 3.61 84.908-.85M80.86 9.342c2.508-2.574 6.316-5.019 9.57-8.01m-10.257 9.724c3.096-2.809 5.83-5.775 9.677-10.93m-4.348 10.435c4.643-3.291 6.32-8.38 9.675-9.471m-9.421 9.96c2.154-2.213 4.554-6.283 9.607-11.356M91.4 10.655c3.454-2.747 4.704-5.191 10.06-11.841m-9.884 11.668c1.96-2.925 4.085-5.218 9.012-10.109m-4.003 11.013c3.888-4.121 7.14-7.748 9.262-10.886m-9.58 10.947c2.953-2.585 4.454-5.86 10.326-11.293m-5.838 11.198c4.777-4.231 9.054-7.121 11.803-11.298M101.545 10.99c3.193-3.276 5.25-6.277 9.044-11.6M106.2 12.134c3.067-3.407 3.858-5.06 9.544-12.646m-9.141 11.14c3.32-2.873 5.42-5.966 9.544-10.506m-5.013 10.309c2.055-1.515 7.151-4.616 12.015-10.956M112.797 10.97c2.277-3.834 6.46-7.938 9.346-11.687m-4.004 12.441c1.247-3.45 4.138-6.627 7.627-11.06m-7.378 9.661c2.265-1.952 4.374-4.938 9.045-9.364m-3.733 9.859c3.091-1.432 5.52-5.485 7.526-12.158m-8.018 12.101c2.779-3.06 7.266-8.385 9.162-11.37m-4.002 11.272c1.946-2 3.077-5.976 9.685-11.48m-9.626 11.006c2.525-2.108 4.477-4.652 8.732-10.15m-5 11.307c4.334-4.86 7.633-6.489 12.405-10.98m-10.902 11.167c1.27-3.291 3.941-6.087 9.93-11.221m-5.177 11.902c2.307-5.459 5.753-5.918 10.597-13.1m-9.58 11.294c3.009-3.256 5.666-5.413 9-10.081m-4.522 9.592c1.102-1.368 3.281-2.703 9.779-9.12M143.49 11.653c3.813-3.13 6.611-6.914 10.38-11.905m-4.448 12.416c3.153-3.188 4.761-7.214 10.48-11.012m-10.65 10.34c3.429-4.546 6.899-7.54 9.348-10.957m-4.134 10.769c3.416-1.801 3.861-4.58 10.303-12.121m-9.564 12.503c2.193-2.547 4.227-6.575 8.822-11.988m-3.932 12.181c2.353-6.04 6.198-7.486 8.495-11.992M160.156 10.8c3.664-4.002 7.304-7.674 8.815-11.214m-5.217 12.254c6.054-5.924 9.768-7.741 10.806-11.72m-9.125 11.674c2.779-5.038 6.32-9.413 9.81-11.895m-3.227 10.616c.034-2.047 3.13-6.712 8.882-9.514m-9.712 9.22c2.617-3.755 6.307-6.523 9.466-10.037m-4.151 10.681c1.637-2.396 4.115-7.06 10.484-10.812M175.659 11.75c3.29-3.593 4.872-7.113 10.085-12.085m-5.64 11.1c4.093-2.034 6.171-7.171 11.208-9.413m-9.648 9.045c2.811-2.124 5.575-5.709 9.082-10.26m-3.292 11.2c.105-3.659 4.278-7.296 7.768-10.776m-9.176 11.106c3.693-4.384 6.778-8.24 10.916-11.804m-4.154 11.284c1.342-4.687 3.532-6.698 6.871-11.426m-7.655 10.407c2.682-2.8 5.374-6.025 8.888-8.812m-3.879 10.253c.799-1.535 1.35-2.326 4.243-5.585m-4.409 5.334c2.004-1.857 3.467-3.816 4.334-4.886" stroke="url(#a)" fill="none"/>
  <path d="M0 0s0 0 0 0m0 0s0 0 0 0m-.45 5.908c1.114-1.7 2.977-2.654 5.52-4.823M-.476 6.787C1.576 3.939 3.201 2.107 4.765.282m-4.89 10.404C3.367 7.843 8.706 1.426 10.838-.37M.646 11.15c3.64-3.631 6.645-7.71 9.236-11.32M5.444 12.043c3.65-5.527 5.982-7.537 9.943-11.311M6.964 11.083C9.003 8.309 10.452 5.808 15.333.608m-5.35 10.006C14.38 6.761 17.293 3.91 20.002.021M11.796 10.8C13.27 9.23 16.363 5.53 21.31.1m-4.627 9.622c3.267-2.361 5.633-4.597 9.962-10.457M16.39 10.73c2.725-1.36 3.839-3.912 9.665-10.1m-2.743 9.287c1.908-1.705 5.59-5.465 7.204-9.382m-7.879 10.18c1.193-1.34 3.657-5.183 9.514-10.644m-5.205 12.136c1.56-4.348 5.359-5.733 9.887-12.762m-8.66 11.764c1.566-2.965 4.28-5.759 9.13-11.117m-3.761 10.185c1.526-3.318 4.209-6.541 9.416-9.853M32.753 10.793c2.657-1.888 4.01-4.963 9.6-10.451M36.957 10.7c2.753-1.555 5.92-3.905 10.314-9.456m-9.158 10.1c3.281-4.263 5.446-7.162 9.875-10.548m-3.234 9.625c.806-.986 2.44-4.802 8.93-11.212m-10.11 12.174C46.277 7.752 50.006 2.627 52.479.13m-2.623 11.909C50.58 8.33 54.69 6.27 57.393-.68m-8.527 11.286c2.531-2.528 6.007-6.111 8.868-10.82m-2.54 10.225c.9-3.451 5.534-6.884 8.409-11.53M54.449 11.78c2.895-3.753 5.845-8.295 8.669-12.369m-4.822 12.075c4.965-3.466 8.599-7.827 11.43-12.69m-9.62 11.613C62.11 8.126 64.279 5.782 69.18.361M65.6 11.036c3.99-4.738 6.24-7.49 8.456-12.384m-10.04 12.82c2.317-2.44 5.16-5.203 10.116-11.162M70.15 9.643c3.532-1.962 4.219-4.095 9.904-10.812M69.68 10.294c3.8-3.16 6.833-7.624 9.1-10.238m-3.254 11.648C79.577 7.093 84.2 2.625 84.253.565m-8.927 9.846c1.862-1.435 4.658-4.385 10.222-10.446m-5.236 10.041c2.703-4.254 8.418-5.86 8.604-8.71m-7.534 9.52c2.542-3.845 5.823-7.392 8.779-10.261m-4.653 10.472c3.289-1.205 4.264-3.544 8.923-11.53M86.222 10.89c2.514-2.728 4.92-4.445 9.936-11.289m-3.757 10.905c.646-2.367 4.283-5.757 8.284-9.297m-8.793 9.443c2.975-4.381 6.516-7.208 8.392-11.241m-3.06 10.822c3.307-1.6 5.144-6.397 8.23-9.187M96.082 11c2.496-2.292 5.746-4.738 10.327-10.9m-3.872 10.148c2.876-3.856 5.463-6.74 9.638-9.635m-10.07 10.159c2.906-3.01 5.13-6.745 9.364-11.17m-3.631 10.213c2.115-4.06 7.584-6.155 9.09-9.91m-10.28 11.216c3.257-2.514 4.313-4.682 9.763-10.124m-3.53 10.416c1.266-3.919 6.929-7.322 8.446-10.36m-8.99 10.138c2.475-3.031 3.61-4.67 10.222-10.99m-6.225 11.81c3.084-2.747 5.727-7.34 10.535-10.7m-9.713 9.226c4.333-3.288 6.622-6.267 10.216-10.042m-3.705 10.928c2.773-3.88 5.52-7.113 8.43-12.303m-10.084 12.512c3.884-4.306 6.29-6.79 10.476-11.217m-4.967 11.562c3.5-3.616 5.678-8.296 10.995-11.684m-9.612 10.095c2.962-4.085 6.514-7.71 8.35-9.588m-4.904 10.964c3.677-2.863 6.446-6.145 12.236-12.284m-10.75 11.868c2.617-2.729 4.76-6.476 8.983-11.38m-5.087 11.914c4.129-3.981 5.733-5.37 10.105-11.73m-9.394 10.396c3.973-2.993 7.09-6.308 9.964-10.191m-4.555 11.983c1.204-3.525 3.513-7.338 9.617-12.033m-9.06 10.256c1.191-2.343 3.94-4.86 9.726-10.044m-3.812 9.339c1.377-2.913 5.33-6.924 7.502-9.147m-7.828 10.297c2.88-3.909 6.286-8.992 8.912-10.088m-3.52 8.885c3.435-1.104 4.825-6.629 8.565-8.98m-9.17 10.122c3.595-4.075 7.299-7.243 9.589-10.41m-4.4 11.466c1.776-5.615 5.528-7.675 9.395-10.546m-9.103 9.441c2.292-2.694 5.847-6.49 9.598-10.391m-4.624 11.23c1.913-5.27 4.27-6.564 8.792-12.854M165.204 11.3c2.224-3.335 4.672-5.396 10.382-11.132m-3.882 11.615c3.196-3.464 5.164-7.758 8.39-10.62m-9.037 9.238c1.734-2.073 3.797-4.128 8.384-10.796m-4.195 10.78c4.736-1.002 7.41-5.23 9.857-9.642m-8.638 10.336c2.227-3.69 5.684-6.43 9.776-11.921m-5.572 11.166c2.377-1.77 6.018-6.544 10.187-11.406m-9.745 12.15c2.417-3.361 5.543-5.778 8.993-10.517m-3.765 10.66c2.298-1.948 5.31-4.8 8.687-12.872m-8.83 12.193c3.618-3.267 6.93-6.676 10.32-11.011m-4.246 10.5c1.979-1.908 6.455-6.835 8.302-9.664m-8.134 9.825c1.487-1.779 4.13-4.38 8.93-9.93m-2.929 9.657c1.327-2.561 5.222-6.87 7.087-8.873m-8.106 9.798c3.185-3.104 5.75-5.976 8.83-11.325m-2.457 11.132c.207-1.722 4.745-4.149 8.596-11.584m-9.469 10.97c1.6-2.33 4.614-5.515 9.706-10.562m-4.278 12.76c3.188-6.443 7.12-9.996 8.712-13.424m-9.205 12.316c2.932-3.171 5.016-7.033 9.1-12.152M213.993 9.54c3.35-2.445 7.324-7.966 7.876-9.56m-7.995 10.99c.94-3.226 3.811-4.91 8.136-10.57m-4.665 9.498c1.593-2.66 4.176-3.249 12.17-11.492m-10.55 12.497c2.032-3.068 3.785-4.994 9.798-10.974m-4.476 12.056c2.485-2.887 3.737-7.502 9.35-11.882m-10.053 11.813c3.34-4.054 7.289-9.415 9.017-12.114m-3.603 10c2.046-1.892 5.552-6.244 7.95-9.795m-7.925 11.322c2.462-3.777 4.413-5.358 9.566-10.429m-4.736 11.404c2.798-5.24 6.302-7.306 9.298-11.775m-8.82 10.207c2.511-2.564 4.333-5.688 9.477-10.995m-3.95 11.006c.776-2.25 3.904-4.029 7.752-11.694m-8.524 12.518c3.514-3.064 4.827-6.897 9.998-11.677m-4.71 12.581c4.003-3.337 3.833-6.678 8.937-13.174m-8.068 12.473c3.133-4.373 5.489-8.531 9.796-11.443m-4.43 10.803c3.196-3.645 4.814-6.226 9.594-11.416m-10.305 11.038c3.01-2.976 6.224-6.752 9.794-9.834m-4.964 9.82c4.87-4.19 6.393-5.708 11.354-12.063m-10.876 12.245c2.796-2.203 5.326-6.128 10.252-10.288m-3.783 9.918c3.065-2.412 5.954-5.776 8.118-8.928m-9.373 9.78c4.12-3.972 6.854-7.56 10.077-11.348m-4.333 9.9c3.524-3.448 7.346-6.728 10.95-11.582M266.283 11.4c2.894-4.39 7.494-8.405 9.717-11.97m-3.239 11.02C274 7.335 279.54 4.417 279.378 0m-8.373 10.19c3.43-2.049 5.131-5.285 9.507-9.925m-4.23 11.119c2.53-2.636 6.49-6.328 9.993-12.296m-9.788 11.822c2.286-2.402 4.884-4.306 9.565-11.492m-4.276 11.447c1.374-2.538 4.801-4.033 10.48-9.816m-10.684 9.42c2.91-2.48 6.436-6.198 9.292-9.974m-3.52 10.047c2.924-1.401 5.917-6.078 8.84-11.224m-9.47 11.055c2.658-3.366 6.202-5.522 10.262-10.754m-3.184 9.926c2.22-2.958 4.946-8.592 8.705-9.367m-9.492 10.844c3.04-4.377 6.521-8.409 9.152-10.504m-3.946 10.856C300.664 9.103 301.986 5.41 306.47 1m-8.426 9.352c1.404-2.34 3.274-4.505 10.292-11.222m-3.708 12.911c2.412-5.457 4.888-7.923 9.143-12.687m-10.388 11.469c3.013-4.401 6.816-7.317 9.3-11.084m-4.123 12.48c3.631-4.718 5.87-7.345 9.76-12.063m-9.348 10.987c1.715-2.424 4.174-4.955 9.394-11.022m-3.07 10.749c.994-1.58 1.432-3.604 7.88-9.717m-9.494 9.632c4.091-3.675 6.418-7.369 9.294-10.522m-3.078 10.793c2.32-3.626 5.845-5.519 7.729-12.073m-8.547 12.73c3.876-4.36 7.163-8.382 9.384-11.534m-3.55 11.433c3.16-5.327 5.37-7.606 9.293-11.601m-9.68 11.128c2.349-3.453 4.678-5.874 9.272-11.696m-4.04 12.09c3.178-3.184 6.664-5.845 10.995-11.098m-10.73 10.374c2.529-3.847 5.345-7.693 9.868-10.586m-4.182 11c.712-4.138 3.1-5.56 9.018-12.051m-10.076 11.26c3.202-2.39 4.915-4.299 9.436-9.898m-2.846 10.372c2.258-1.606 3.367-5.584 8.655-10.042m-9.846 9.488c3.059-2.386 5.61-4.753 9.206-9.992m-3.114 11.016c1.057-1.883 4.789-7.61 7.997-11.447m-8.708 10.644c2.317-2.637 4.603-4.088 10.096-10.3m-5.847 9.584c3.112-.873 6.644-4.021 9.848-10.041m-8.49 10.505c3.041-2.177 5.71-4.92 9.493-9.619m-5.89 10.637c5.571-4.996 9.31-8.148 10.07-9.92m-8.566 10.383c1.869-3.675 4.123-6.827 8.936-12.122m-4.765 12.137c4.542-3.848 9.496-10.495 11.42-12.535m-10.729 11.843c3.707-3.371 7.546-7.527 9.694-10.305m-4.39 11.162c4.57-4.867 7.81-9.516 11.043-13.263m-10.85 11.783c2.971-2.688 5.64-5.209 9.384-10.718m-3.277 11.57c4.017-4.386 5.072-7.977 9.372-10.908m-9.164 10.532c2.852-3.866 7.133-9.042 8.614-10.761m-3.456 12.03c1.575-2.71 5.469-7.236 8.21-11.409m-9.597 10.46c4.184-4.904 8.065-8.067 10.7-11.537m-5.117 12.142c4.823-4.033 6.02-8.643 11.006-12.072m-9.924 10.996c1.645-2.514 2.98-4.47 8.389-11.067m-3.731 10.644c3.33-1.636 6.073-7.688 9.402-9.417m-9.112 10.697c1.962-3.129 3.15-5.257 9.78-11.738m-4.042 10.47c3.587-2.661 5.631-8.782 7.676-11.455m-7.834 11.816c2.022-2.807 5.002-5.151 9.246-10.939m-5.053 11.352c2.918-3.78 6.067-3.787 9.283-10.636M398.37 11.87c2.385-3.84 5.948-7.922 10.25-12.618m-4.735 11.285c1.863-1.322 4.682-4.772 8.946-10.454m-8.125 11.159c1.844-4.08 5.368-6.53 8.849-11.699m-5.669 11.072c5.642-3.568 9.294-9.327 10.552-9.534m-9.16 9.372c3.986-4.44 7.94-8.693 8.878-10.398m-2.85 11.299c1.459-2.894 6.309-7.662 8.35-11.018m-8.376 9.798c1.839-1.726 4.303-5.002 8.041-9.424m-2.27 11.123c2.189-4.566 3.745-6.889 7.232-12.578m-9.03 11.203c4.168-4.018 7.002-7.052 10.505-11.001m-5.217 11.768c5.012-3.993 6.752-5.725 11.003-10.68m-10.55 9.643c1.803-1.494 3.78-3.746 10.166-10.707m-5.172 11.379c4.442-2.236 7.023-6.342 10.737-12.039M430.49 11.555c2.776-4.875 5.531-7.451 9.963-12.325m-4.707 10.33c1.627-.396 3.358-2.88 8.502-9.315m-8.584 10.146c2.867-3.676 5.724-6.913 9.306-10.804M441.81 11.32c2.758-3.911 4.685-5.205 8.916-11.721m-9.422 11.852c1.896-2.33 3.773-5.671 9.878-12.397m-5.026 10.319c4.843-3.907 6.242-7.52 9.15-10.046m-8.824 11.217c1.66-2.642 3.887-4.527 8.721-10.25m-4.249 11.447c3.95-3.693 8.82-9.694 11.74-10.724m-11.288 9.534c3.003-3.635 6.311-6.508 10.111-11.648m-6.006 13.805c2.295-3.996 4.523-6.355 9.604-11.387M457.1 11.585c.777-3.002 2.909-4.965 8.59-11.974m-2.424 10.815c2.281-1.926 2.27-2.874 9.486-9.005m-10.987 9.699c3.846-3.672 6.955-7.46 10.021-10.571m-4.375 10.164c2.206-2.162 5.038-5.072 10.843-11.21m-10.48 12.084c2.96-3.421 6.199-7.132 9.813-10.957m-5.124 9.786c1.803-1.83 5.18-3.46 10-8.804m-9.058 9.96c2.364-2.967 4.068-6.109 8.633-11.48m-3.26 12.311c2.324-5.842 4.034-7.252 7.892-13.272m-9.523 11.822c3.346-1.603 5.331-4.493 10.97-11.723m-4.555 12.986c2.89-3.377 4.68-6.853 9.37-12.165m-9.296 10.331c2.59-2.72 5.869-7.173 8.698-9.783m-3.34 11.597c1.117-4.223 3.281-6.735 10.102-11.371m-10.503 10.808c4.284-4.603 8.036-9.398 9.844-11.679m-3.492 10.974c.462-2.284 2.853-5.288 7.236-8.472m-8.015 8.602c1.077-2.167 2.686-3.797 7.78-9.064" stroke="url(#a)" stroke-opacity="0.5" fill="none"/>
</svg>
